<svg width="600" height="138.596" xmlns="http://www.w3.org/2000/svg" xml:space="preserve" enable-background="new 0 0 600 138.596" version="1.1">

 <g>
  <title>Layer 1</title>
  <path id="svg_1" d="m40,25c-13.096,0 -22.889,3.072 -29.332,9.98c-6.445,6.91 -9.668,17.635 -9.668,32.173c0,14.54 3.223,25.266 9.668,32.173c6.443,6.912 16.216,10.368 29.312,10.368c10.828,0 19.541,-2.554 26.142,-7.658c6.598,-5.104 9.899,-12.762 9.899,-22.972l-20.883,0c0,4.541 -1.366,8.045 -4.099,10.519c-2.733,2.474 -6.317,3.715 -10.75,3.715c-6.29,0 -10.775,-1.728 -13.456,-5.184c-2.685,-3.454 -4.127,-8.791 -4.333,-16.01l53.52,0l0,-4.951c0,-14.435 -2.991,-25.135 -8.972,-32.095l-27.048,-10.058zm-17.19,33.028c0.62,-5.669 2.296,-9.899 5.028,-12.684c2.73,-2.783 6.779,-4.177 12.142,-4.177c9.384,0 14.076,5.623 14.076,16.861l-31.246,0zm112.611,-33.412c-5.26,0 -10.055,1.057 -14.387,3.17c-4.33,2.115 -7.786,5.237 -10.364,9.359l-1.083,0l-1.392,-10.672l-18.1,0l0,108.123l21.192,0l0,-36.194l0.929,0c2.371,3.612 5.646,6.395 9.823,8.349c4.175,1.959 8.995,2.943 14.463,2.943c9.485,0 17.092,-3.561 22.814,-10.675c5.724,-7.116 8.585,-17.685 8.585,-31.711c0,-14.332 -2.838,-25.032 -8.507,-32.098c-5.67,-7.06 -13.664,-10.594 -23.973,-10.594zm10.673,43.931c0,7.633 -1.341,13.33 -4.021,17.092c-2.682,3.765 -7.168,5.646 -13.458,5.646c-11.551,0 -17.326,-7.681 -17.326,-23.05l0,-2.474c0,-15.158 5.775,-22.739 17.326,-22.739c6.29,0 10.775,1.884 13.458,5.646c2.68,3.765 4.021,9.462 4.021,17.092l0,2.787zm36.192,-72.547l21.192,0l0,19.18l-21.192,0l0,-19.18zm0,30.473l21.192,0l0,81.363l-21.192,0l0,-81.363zm62.339,0l14.076,0l0,17.324l-14.076,0l0,41.919c0,4.436 2.218,6.653 6.651,6.653l7.425,0l0,14.849c-1.753,0.618 -3.944,1.186 -6.573,1.703c-2.63,0.513 -5.081,0.774 -7.347,0.774c-7.633,0 -13.099,-2.064 -16.397,-6.189c-3.303,-4.124 -4.951,-9.334 -4.951,-15.623l0,-44.087l-9.746,0l0,-17.323l10.21,0l3.557,-22.894l17.17,0l0,22.894l0.001,0zm63.728,-1.857c-13.92,0 -24.286,3.456 -31.09,10.364c-6.807,6.91 -10.21,17.635 -10.21,32.173c0,14.54 3.403,25.266 10.21,32.173c6.804,6.912 17.17,10.368 31.09,10.368c13.923,0 24.309,-3.456 31.168,-10.368c6.857,-6.907 10.288,-17.633 10.288,-32.173c0,-14.538 -3.431,-25.263 -10.288,-32.173c-6.859,-6.908 -17.246,-10.364 -31.168,-10.364zm19.644,43.775c0,8.043 -1.547,14.053 -4.639,18.022c-3.094,3.971 -8.098,5.955 -15.005,5.955c-6.91,0 -11.885,-1.984 -14.927,-5.955c-3.042,-3.969 -4.561,-9.979 -4.561,-18.022l0,-2.474c0,-8.045 1.52,-14.051 4.561,-18.022c3.042,-3.969 8.018,-5.955 14.927,-5.955c6.907,0 11.911,1.987 15.005,5.955c3.092,3.971 4.639,9.977 4.639,18.022l0,2.474zm143.933,-36.968c4.587,4.539 6.882,11.808 6.882,21.81l0,54.603l-21.192,0l0,-50.117c0,-9.59 -3.971,-14.387 -11.911,-14.387c-4.124,0 -7.528,1.678 -10.208,5.028c-2.682,3.353 -4.021,7.503 -4.021,12.451l0,47.025l-21.19,0l0,-50.117c0,-9.59 -3.971,-14.387 -11.911,-14.387c-4.127,0 -7.555,1.678 -10.288,5.028c-2.733,3.353 -4.099,7.503 -4.099,12.451l0,47.025l-21.192,0l0,-81.363l18.1,0l1.547,10.672l1.083,0c5.978,-8.352 13.712,-12.529 23.201,-12.529c10.311,0 17.427,4.177 21.347,12.529l1.238,0c6.187,-8.352 14.229,-12.529 24.13,-12.529c7.734,0 13.895,2.269 18.484,6.807zm59.629,-6.807c-13.096,0 -22.869,3.456 -29.312,10.364c-6.445,6.91 -9.668,17.635 -9.668,32.173c0,14.54 3.223,25.266 9.668,32.173c6.443,6.912 16.216,10.368 29.312,10.368c10.828,0 19.541,-2.554 26.142,-7.658c6.598,-5.104 9.899,-12.762 9.899,-22.972l-20.883,0c0,4.541 -1.366,8.045 -4.099,10.519c-2.733,2.474 -6.317,3.715 -10.75,3.715c-6.289,0 -10.775,-1.728 -13.456,-5.184c-2.685,-3.454 -4.127,-8.791 -4.333,-16.01l53.52,0l0,-4.951c0,-14.435 -2.991,-25.135 -8.972,-32.095c-5.979,-6.963 -15.001,-10.442 -27.068,-10.442zm-17.17,33.412c0.62,-5.669 2.296,-9.899 5.028,-12.684c2.73,-2.783 6.779,-4.177 12.142,-4.177c9.384,0 14.076,5.623 14.076,16.861l-31.246,0zm84.611,28.616l0,21.192l-21.345,0l0,-21.192l21.345,0z" fill="#FFFFFF"/>
  <rect stroke="null" id="svg_5" height="149.00001" width="608.99998" y="-3.702" x="-4.99997" fill="#0f0404"/>
  <text xml:space="preserve" text-anchor="start" font-family="Noto Sans JP" font-size="24" stroke-width="0" id="svg_3" y="99.298" x="93" fill="#000000"/>
  <polyline stroke-linecap="round" id="svg_4" points="143,-111.70199584960938 143,-111.70199584960938 " fill="none"/>
  <text xml:space="preserve" text-anchor="start" font-family="Noto Sans JP" font-size="24" stroke-width="0" id="svg_7" y="55.298" x="187" stroke="null" fill="#000000"/>
  <text transform="matrix(2.99951 0 0 3.12544 -441.917 -129.445)" stroke="null" font-style="normal" font-weight="normal" xml:space="preserve" text-anchor="start" font-family="serif" font-size="24" stroke-width="0" id="svg_8" y="75.23608" x="149" fill="#f7f7f7">ThandananiNgcobo.</text>
  <text transform="matrix(-5.80196 0 0 5.03858 4008.57 9.00394)" stroke="null" xml:space="preserve" text-anchor="start" font-family="serif" font-size="24" id="svg_10" y="19.56166" x="587.75938" stroke-width="0" fill="#7f003f">.</text>
 </g>
</svg>